{
    "asset" : {
        "generator" : "Khronos glTF Blender I/O v1.5.17",
        "version" : "2.0"
    },
    "scene" : 0,
    "scenes" : [
        {
            "name" : "Scene",
            "nodes" : [
                0
            ]
        }
    ],
    "nodes" : [
        {
            "mesh" : 0,
            "name" : "Cube",
            "scale" : [
                0.9497295618057251,
                0.9446637034416199,
                1
            ]
        }
    ],
    "materials" : [
        {
            "doubleSided" : true,
            "name" : "Material.001",
            "pbrMetallicRoughness" : {
                "baseColorFactor" : [
                    0.8000000715255737,
                    0.17031393945217133,
                    0.041772156953811646,
                    1
                ],
                "metallicFactor" : 0,
                "roughnessFactor" : 0.5
            }
        },
        {
            "doubleSided" : true,
            "name" : "Material.002",
            "pbrMetallicRoughness" : {
                "baseColorFactor" : [
                    0,
                    0,
                    0,
                    1
                ],
                "metallicFactor" : 0,
                "roughnessFactor" : 0.5
            }
        },
        {
            "doubleSided" : true,
            "name" : "Material.003",
            "pbrMetallicRoughness" : {
                "metallicFactor" : 0,
                "roughnessFactor" : 0.5
            }
        }
    ],
    "meshes" : [
        {
            "name" : "Cube.001",
            "primitives" : [
                {
                    "attributes" : {
                        "POSITION" : 0,
                        "NORMAL" : 1,
                        "TEXCOORD_0" : 2
                    },
                    "indices" : 3,
                    "material" : 0
                },
                {
                    "attributes" : {
                        "POSITION" : 4,
                        "NORMAL" : 5,
                        "TEXCOORD_0" : 6
                    },
                    "indices" : 7,
                    "material" : 1
                },
                {
                    "attributes" : {
                        "POSITION" : 8,
                        "NORMAL" : 9,
                        "TEXCOORD_0" : 10
                    },
                    "indices" : 11,
                    "material" : 2
                }
            ]
        }
    ],
    "accessors" : [
        {
            "bufferView" : 0,
            "componentType" : 5126,
            "count" : 1112,
            "max" : [
                0.9068803787231445,
                2.408756732940674,
                3.3186469078063965
            ],
            "min" : [
                -0.9068803787231445,
                -1.25194251537323,
                -3.310861110687256
            ],
            "type" : "VEC3"
        },
        {
            "bufferView" : 1,
            "componentType" : 5126,
            "count" : 1112,
            "type" : "VEC3"
        },
        {
            "bufferView" : 2,
            "componentType" : 5126,
            "count" : 1112,
            "type" : "VEC2"
        },
        {
            "bufferView" : 3,
            "componentType" : 5123,
            "count" : 1668,
            "type" : "SCALAR"
        },
        {
            "bufferView" : 4,
            "componentType" : 5126,
            "count" : 792,
            "max" : [
                0.6128657460212708,
                1.1877070665359497,
                3.321465492248535
            ],
            "min" : [
                -0.6128657460212708,
                -2.1233904361724854,
                -1.8681640625
            ],
            "type" : "VEC3"
        },
        {
            "bufferView" : 5,
            "componentType" : 5126,
            "count" : 792,
            "type" : "VEC3"
        },
        {
            "bufferView" : 6,
            "componentType" : 5126,
            "count" : 792,
            "type" : "VEC2"
        },
        {
            "bufferView" : 7,
            "componentType" : 5123,
            "count" : 1188,
            "type" : "SCALAR"
        },
        {
            "bufferView" : 8,
            "componentType" : 5126,
            "count" : 256,
            "max" : [
                0.6243043541908264,
                1.1148855686187744,
                3.321465492248535
            ],
            "min" : [
                -0.6243043541908264,
                -0.7155272960662842,
                -4.18697452545166
            ],
            "type" : "VEC3"
        },
        {
            "bufferView" : 9,
            "componentType" : 5126,
            "count" : 256,
            "type" : "VEC3"
        },
        {
            "bufferView" : 10,
            "componentType" : 5126,
            "count" : 256,
            "type" : "VEC2"
        },
        {
            "bufferView" : 11,
            "componentType" : 5123,
            "count" : 384,
            "type" : "SCALAR"
        }
    ],
    "bufferViews" : [
        {
            "buffer" : 0,
            "byteLength" : 13344,
            "byteOffset" : 0
        },
        {
            "buffer" : 0,
            "byteLength" : 13344,
            "byteOffset" : 13344
        },
        {
            "buffer" : 0,
            "byteLength" : 8896,
            "byteOffset" : 26688
        },
        {
            "buffer" : 0,
            "byteLength" : 3336,
            "byteOffset" : 35584
        },
        {
            "buffer" : 0,
            "byteLength" : 9504,
            "byteOffset" : 38920
        },
        {
            "buffer" : 0,
            "byteLength" : 9504,
            "byteOffset" : 48424
        },
        {
            "buffer" : 0,
            "byteLength" : 6336,
            "byteOffset" : 57928
        },
        {
            "buffer" : 0,
            "byteLength" : 2376,
            "byteOffset" : 64264
        },
        {
            "buffer" : 0,
            "byteLength" : 3072,
            "byteOffset" : 66640
        },
        {
            "buffer" : 0,
            "byteLength" : 3072,
            "byteOffset" : 69712
        },
        {
            "buffer" : 0,
            "byteLength" : 2048,
            "byteOffset" : 72784
        },
        {
            "buffer" : 0,
            "byteLength" : 768,
            "byteOffset" : 74832
        }
    ],
    "buffers" : [
        {
            "byteLength" : 75600,
            "uri" : "data:application/octet-stream;base64,"
        }
    ]
}
